
nColumns=19
nRows=67
DataType=double
version=3
OpenSimVersion=4.4-2022-10-11-798caa840
endheader
time	ground_force_calcn_r_vx	ground_force_calcn_r_vy	ground_force_calcn_r_vz	ground_force_calcn_r_px	ground_force_calcn_r_py	ground_force_calcn_r_pz	ground_force_calcn_r_mx	ground_force_calcn_r_my	ground_force_calcn_r_mz	ground_force_calcn_l_vx	ground_force_calcn_l_vy	ground_force_calcn_l_vz	ground_force_calcn_l_px	ground_force_calcn_l_py	ground_force_calcn_l_pz	ground_force_calcn_l_mx	ground_force_calcn_l_my	ground_force_calcn_l_mz
4.5	-30.4364	724.641	-73.65170000000001	-0.254836	0	-0.334539	0.231071	-5.50144	0.55916	26.1022	274.403	26.4552	-0.265087	0	-0.89939	-0.182417	-1.91768	-0.184883
4.51	-29.2192	713.857	-72.8214	-0.254613	0	-0.334626	0.212565	-5.19318	0.529762	25.7467	271.433	26.6258	-0.263811	0	-0.899838	-0.172439	-1.81793	-0.178326
4.52	-27.8541	702.734	-71.7567	-0.254475	0	-0.334778	0.193881	-4.89145	0.49947	25.3138	268.582	26.8359	-0.262664	0	-0.900322	-0.16119	-1.71024	-0.170882
4.53	-26.3635	691.441	-70.49809999999999	-0.254426	0	-0.334996	0.175385	-4.59985	0.468992	24.8203	265.848	27.0777	-0.26167	0	-0.900833	-0.148947	-1.59537	-0.162494
4.54	-24.7722	680.136	-69.0984	-0.254469	0	-0.335271	0.157402	-4.32156	0.439048	24.2785	263.231	27.3446	-0.260844	0	-0.901367	-0.135966	-1.47417	-0.153137
4.55	-23.105	668.963	-67.61839999999999	-0.254605	0	-0.335597	0.140203	-4.05933	0.410315	23.6941	260.728	27.6315	-0.260196	0	-0.9019160000000001	-0.122464	-1.34758	-0.142814
4.56	-21.3825	658.0549999999999	-66.12269999999999	-0.254837	0	-0.335963	0.123979	-3.8155	0.383389	23.0661	258.33	27.9342	-0.259725	0	-0.902475	-0.108644	-1.21676	-0.131573
4.57	-19.6202	647.533	-64.6752	-0.255161	0	-0.336355	0.108836	-3.59194	0.35876	22.3889	256.021	28.2492	-0.259427	0	-0.903043	-0.0947226	-1.08317	-0.119516
4.58	-17.8303	637.496	-63.3356	-0.255576	0	-0.33676	0.0948118	-3.38986	0.336785	21.6544	253.774	28.5729	-0.259283	0	-0.9036149999999999	-0.0809358	-0.948509	-0.106794
4.59	-16.0224	628.013	-62.1573	-0.256078	0	-0.337165	0.081887	-3.20963	0.317672	20.8557	251.555	28.9018	-0.259277	0	-0.9041940000000001	-0.06754209999999999	-0.814671	-0.09359969999999999
4.6	-14.2075	619.141	-61.1859	-0.256659	0	-0.337552	0.0700074	-3.05082	0.301494	19.9909	249.319	29.2309	-0.259386	0	-0.9047770000000001	-0.0547903	-0.683323	-0.0801148
4.61	-12.3989	610.931	-60.4577	-0.257316	0	-0.337911	0.0591047	-2.91228	0.288199	19.0649	247.012	29.5517	-0.259589	0	-0.905365	-0.0428815	-0.555589	-0.06646879999999999
4.62	-10.6118	603.421	-59.998	-0.258039	0	-0.338231	0.0491028	-2.79214	0.277621	18.0886	244.574	29.8512	-0.259867	0	-0.905955	-0.0319457	-0.431935	-0.0527194
4.63	-8.863390000000001	596.633	-59.8217	-0.258818	0	-0.338502	0.0399311	-2.68794	0.269507	17.0785	241.941	30.1123	-0.260205	0	-0.906545	-0.0220289	-0.312071	-0.0388407
4.64	-7.17511	590.567	-59.9333	-0.259635	0	-0.33872	0.0315498	-2.59679	0.263534	16.0546	239.058	30.3159	-0.26059	0	-0.907129	-0.0131083	-0.195186	-0.0247523
4.65	-5.57357	585.2	-60.3259	-0.260473	0	-0.338881	0.0239605	-2.51575	0.259338	15.0358	235.881	30.4455	-0.261016	0	-0.907703	-0.00511844	-0.08029799999999999	-0.0103642
4.66	-4.08551	580.486	-60.9783	-0.261308	0	-0.338983	0.0171876	-2.44208	0.256533	14.0369	232.39	30.4912	-0.261474	0	-0.908262	0.00201828	0.0334139	0.00438413
4.67	-2.73262	576.365	-61.8541	-0.262114	0	-0.339033	0.011253	-2.37348	0.254716	13.0692	228.586	30.4511	-0.261964	0	-0.908801	0.008378200000000001	0.146538	0.0195212
4.68	-1.53137	572.77	-62.9035	-0.262869	0	-0.339034	0.00617076	-2.30801	0.253474	12.1398	224.489	30.3307	-0.262488	0	-0.909317	0.0140212	0.25928	0.0350312
4.69	-0.493896	569.621	-64.0664	-0.263547	0	-0.338998	0.00194587	-2.24422	0.252411	11.2535	220.139	30.1401	-0.263048	0	-0.909808	0.0189904	0.371489	0.0508619
4.7	0.373313	566.816	-65.27500000000001	-0.264123	0	-0.338934	-0.00143659	-2.18123	0.251192	10.4141	215.588	29.8906	-0.263649	0	-0.9102710000000001	0.0233152	0.482661	0.0669196
4.71	1.06843	564.227	-66.4601	-0.264579	0	-0.338849	-0.004012	-2.11869	0.24956	9.624090000000001	210.903	29.5941	-0.264296	0	-0.9107	0.0270062	0.591816	0.0830441
4.72	1.59329	561.704	-67.5585	-0.264897	0	-0.338756	-0.00583389	-2.0567	0.247368	8.882199999999999	206.175	29.2636	-0.264992	0	-0.91109	0.030053	0.697595	0.0990137
4.73	1.95633	559.0839999999999	-68.5201	-0.265069	0	-0.338658	-0.00698304	-1.99563	0.24458	8.183450000000001	201.509	28.9146	-0.265743	0	-0.911434	0.032415	0.798186	0.114532
4.74	2.17541	556.202	-69.31189999999999	-0.265093	0	-0.338558	-0.00757197	-1.93598	0.241254	7.52181	197.024	28.565	-0.26655	0	-0.911727	0.0340295	0.89136	0.129231
4.75	2.27504	552.902	-69.9161	-0.264974	0	-0.338458	-0.00772867	-1.8783	0.237516	6.89205	192.839	28.2329	-0.267415	0	-0.9119660000000001	0.0348357	0.974699	0.142703
4.76	2.28466	549.052	-70.32340000000001	-0.264725	0	-0.338358	-0.00758679	-1.82326	0.233526	6.28983	189.064	27.9339	-0.268333	0	-0.912147	0.0347917	1.04579	0.154514
4.77	2.23849	544.5410000000001	-70.5301	-0.264363	0	-0.338258	-0.00728278	-1.77163	0.229465	5.71173	185.796	27.6799	-0.269295	0	-0.91227	0.0338933	1.10251	0.164252
4.78	2.17192	539.28	-70.5378	-0.263907	0	-0.338159	-0.00694394	-1.72416	0.225519	5.1545	183.111	27.4796	-0.270291	0	-0.912336	0.032182	1.14325	0.171569
4.79	2.11701	533.205	-70.3522	-0.263376	0	-0.338063	-0.00667601	-1.68146	0.221856	4.61412	181.069	27.3415	-0.271301	0	-0.912345	0.0297389	1.16702	0.176221
4.8	2.09949	526.284	-69.9816	-0.262785	0	-0.337971	-0.00655799	-1.6439	0.218595	4.08673	179.721	27.2757	-0.272311	0	-0.9123019999999999	0.0266875	1.17363	0.178118
4.81	2.13501	518.524	-69.4384	-0.262149	0	-0.337886	-0.00663452	-1.61131	0.21578	3.57198	179.108	27.2946	-0.273297	0	-0.9122130000000001	0.0232138	1.16399	0.177384
4.82	2.22677	509.975	-68.7392	-0.261474	0	-0.33781	-0.00691183	-1.58295	0.213364	3.07463	179.255	27.4108	-0.274247	0	-0.912081	0.0195591	1.14032	0.174372
4.83	2.36602	500.724	-67.9015	-0.26076	0	-0.337743	-0.00735904	-1.55741	0.211195	2.60238	180.173	27.6346	-0.275143	0	-0.911913	0.0159733	1.10589	0.16962
4.84	2.5321	490.891	-66.9402	-0.260006	0	-0.337686	-0.007906089999999999	-1.53273	0.209011	2.16221	181.858	27.9739	-0.275972	0	-0.911708	0.0126606	1.06485	0.163798
4.85	2.69523	480.61	-65.8672	-0.259204	0	-0.33764	-0.00844963	-1.50673	0.206496	1.75833	184.3	28.4343	-0.276718	0	-0.911474	0.009748949999999999	1.02184	0.157652
4.86	2.82315	470.013	-64.69199999999999	-0.258349	0	-0.337606	-0.00887318	-1.47725	0.203327	1.39132	187.484	29.0207	-0.27736	0	-0.911212	0.00728436	0.981583	0.15194
4.87	2.88814	459.218	-63.4233	-0.257431	0	-0.337582	-0.00907264	-1.44256	0.199234	1.05752	191.396	29.7384	-0.277878	0	-0.910929	0.00523984	0.94834	0.14735
4.88	2.87152	448.329	-62.0705	-0.256449	0	-0.33757	-0.008976400000000001	-1.40148	0.194033	0.748817	196.025	30.5928	-0.278245	0	-0.910635	0.00353507	0.925409	0.144425
4.89	2.76342	437.441	-60.6465	-0.255405	0	-0.33757	-0.00855037	-1.3535	0.187648	0.453589	201.352	31.5864	-0.278432	0	-0.910342	0.00206131	0.915037	0.143543
4.9	2.56347	426.648	-59.1673	-0.254306	0	-0.337579	-0.00780398	-1.29885	0.180123	0.157306	207.346	32.7148	-0.278411	0	-0.910062	0.000696629	0.918228	0.144877
4.91	2.28271	416.032	-57.6501	-0.253168	0	-0.337599	-0.00679559	-1.23852	0.171623	-0.157599	213.956	33.966	-0.278152	0	-0.909806	-0.00068859	0.934826	0.148406
4.92	1.93959	405.662	-56.1122	-0.252008	0	-0.337629	-0.00561338	-1.17403	0.162395	-0.512002	221.123	35.321	-0.27763	0	-0.909583	-0.00223134	0.96367	0.153932
4.93	1.55338	395.593	-54.5697	-0.250843	0	-0.337668	-0.00434744	-1.10715	0.152724	-0.927999	228.775	36.7565	-0.276823	0	-0.909399	-0.00406807	1.00288	0.161129
4.94	1.14407	385.858	-53.0378	-0.249692	0	-0.337715	-0.0030828	-1.03973	0.142915	-1.42531	236.836	38.2464	-0.275722	0	-0.909259	-0.00631986	1.05014	0.169585
4.95	0.730769	376.468	-51.5319	-0.248569	0	-0.337768	-0.00188957	-0.973445	0.133248	-2.01736	245.23	39.7628	-0.274328	0	-0.909161	-0.00907408	1.10304	0.178853
4.96	0.323981	367.425	-50.0673	-0.247482	0	-0.337822	-0.00080211	-0.90967	0.123956	-2.71105	253.884	41.2793	-0.272648	0	-0.9091050000000001	-0.0123796	1.15933	0.188496
4.97	-0.07609730000000001	358.729	-48.6569	-0.246435	0	-0.337873	0.000180203	-0.849494	0.115223	-3.50982	262.747	42.7751	-0.270702	0	-0.909089	-0.0162565	1.21697	0.198122
4.98	-0.473602	350.366	-47.3081	-0.245425	0	-0.337917	0.0010732	-0.793945	0.107202	-4.41573	271.795	44.2389	-0.268512	0	-0.909111	-0.0207002	1.27413	0.207385
4.99	-0.87431	342.308	-46.0199	-0.244443	0	-0.337951	0.00190048	-0.744072	0.100033	-5.42779	281.032	45.6691	-0.266115	0	-0.909168	-0.0256681	1.32901	0.21597
5	-1.28493	334.517	-44.7828	-0.243481	0	-0.337972	0.00269263	-0.700997	0.09384480000000001	-6.53723	290.493	47.0764	-0.263556	0	-0.909262	-0.0310531	1.3799	0.223622
5.01	-1.71087	326.954	-43.5819	-0.242528	0	-0.337981	0.00348463	-0.665929	0.088766	-7.72601	300.23	48.484	-0.260892	0	-0.9093909999999999	-0.0366789	1.42533	0.230176
5.02	-2.15672	319.599	-42.403	-0.241574	0	-0.337975	0.00431935	-0.640074	0.0849222	-8.970649999999999	310.305	49.9243	-0.258184	0	-0.909556	-0.0423235	1.46402	0.235543
5.03	-2.62785	312.453	-41.2371	-0.240613	0	-0.33796	0.00525251	-0.624526	0.0824242	-10.2461	320.772	51.4332	-0.255487	0	-0.909758	-0.0477497	1.49489	0.239694
5.04	-3.12885	305.542	-40.0818	-0.239643	0	-0.337936	0.00635092	-0.620187	0.08135770000000001	-11.5253	331.671	53.0433	-0.252857	0	-0.9099969999999999	-0.0527307	1.51746	0.242684
5.05	-3.66387	298.911	-38.9404	-0.238662	0	-0.337907	0.00769311	-0.62763	0.08176410000000001	-12.7776	343.013	54.7792	-0.250344	0	-0.910269	-0.0570647	1.5319	0.244644
5.06	-4.2392	292.607	-37.8209	-0.237673	0	-0.337872	0.00937283	-0.6469510000000001	0.0836216	-13.968	354.791	56.6567	-0.247989	0	-0.910571	-0.0605933	1.53909	0.245777
5.07	-4.86237	286.675	-36.7335	-0.236674	0	-0.337838	0.0114972	-0.6778459999999999	0.0868568	-15.062	366.977	58.6857	-0.245821	0	-0.910899	-0.0632216	1.54036	0.246329
5.08	-5.53942	281.147	-35.6895	-0.235666	0	-0.337804	0.0141823	-0.719804	0.0913737	-16.0314	379.53	60.8724	-0.243859	0	-0.911245	-0.0649274	1.5371	0.246535
5.09	-6.27443	276.039	-34.7003	-0.234642	0	-0.33777	0.0175525	-0.77221	0.09707300000000001	-16.8585	392.399	63.2183	-0.242106	0	-0.911606	-0.06575930000000001	1.53061	0.246593
5.1	-7.07024	271.35	-33.7758	-0.233598	0	-0.337735	0.0217393	-0.83434	0.103853	-17.5372	405.519	65.71680000000001	-0.240548	0	-0.911975	-0.06581389999999999	1.52184	0.246623
5.11	-7.92736	267.067	-32.9218	-0.232527	0	-0.337699	0.0268718	-0.90529	0.111597	-18.0723	418.81	68.34999999999999	-0.239161	0	-0.912345	-0.0652194	1.5114	0.246662
5.12	-8.84202	263.166	-32.14	-0.231417	0	-0.337659	0.0330601	-0.983972	0.120171	-18.4774	432.167	71.0877	-0.237913	0	-0.912709	-0.06412180000000001	1.49974	0.246694
5.13	-9.805120000000001	259.628	-31.4288	-0.230264	0	-0.337613	0.0403709	-1.06897	0.129402	-18.7719	445.461	73.8887	-0.236768	0	-0.913062	-0.0626683	1.48713	0.246671
5.14	-10.8025	256.438	-30.7857	-0.229063	0	-0.337558	0.0488086	-1.15866	0.139098	-18.9794	458.536	76.7038	-0.235685	0	-0.913398	-0.0609976	1.47369	0.246518
5.15	-11.816	253.587	-30.2097	-0.227814	0	-0.33749	0.0582997	-1.25119	0.149054	-19.1262	471.221	79.4785	-0.234631	0	-0.913713	-0.0592273	1.45921	0.246118
5.16	-12.8245	251.072	-29.7016	-0.226521	0	-0.337409	0.0686857	-1.3447	0.159076	-19.2387	483.329	82.1559	-0.233576	0	-0.914001	-0.0574474	1.44323	0.24532
